<mxfile host="app.diagrams.net" modified="2023-09-12T03:37:20.354Z" agent="Mozilla/5.0 (Windows NT 10.0; Win64; x64) AppleWebKit/537.36 (KHTML, like Gecko) Chrome/116.0.0.0 Safari/537.36" etag="Iwo-r8CZAQla5s4WVqJx" version="21.7.4" type="device">
  <diagram name="PÃ¡gina-1" id="bq7RzXswv1uJFJO5-sAn">
    <mxGraphModel dx="1434" dy="750" grid="1" gridSize="10" guides="1" tooltips="1" connect="1" arrows="1" fold="1" page="1" pageScale="1" pageWidth="827" pageHeight="1169" math="0" shadow="0">
      <root>
        <mxCell id="0" />
        <mxCell id="1" parent="0" />
        <mxCell id="X5GrDBOopuYj631vkxeP-22" value="" style="rounded=0;whiteSpace=wrap;html=1;" vertex="1" parent="1">
          <mxGeometry y="20" width="1000" height="570" as="geometry" />
        </mxCell>
        <mxCell id="X5GrDBOopuYj631vkxeP-19" style="edgeStyle=orthogonalEdgeStyle;rounded=0;orthogonalLoop=1;jettySize=auto;html=1;" edge="1" parent="1" source="X5GrDBOopuYj631vkxeP-13" target="X5GrDBOopuYj631vkxeP-18">
          <mxGeometry relative="1" as="geometry" />
        </mxCell>
        <mxCell id="X5GrDBOopuYj631vkxeP-13" value="" style="rounded=0;whiteSpace=wrap;html=1;" vertex="1" parent="1">
          <mxGeometry x="450" y="215" width="510" height="340" as="geometry" />
        </mxCell>
        <mxCell id="X5GrDBOopuYj631vkxeP-10" style="edgeStyle=orthogonalEdgeStyle;rounded=0;orthogonalLoop=1;jettySize=auto;html=1;entryX=0;entryY=0.5;entryDx=0;entryDy=0;" edge="1" parent="1" source="X5GrDBOopuYj631vkxeP-1" target="X5GrDBOopuYj631vkxeP-4">
          <mxGeometry relative="1" as="geometry">
            <mxPoint x="30" y="359.9999999999999" as="targetPoint" />
          </mxGeometry>
        </mxCell>
        <mxCell id="X5GrDBOopuYj631vkxeP-1" value="" style="verticalLabelPosition=bottom;sketch=0;aspect=fixed;html=1;verticalAlign=top;strokeColor=none;align=center;outlineConnect=0;shape=mxgraph.citrix.laptop_2;" vertex="1" parent="1">
          <mxGeometry x="2.3000000000000007" y="250" width="40.23" height="30" as="geometry" />
        </mxCell>
        <mxCell id="X5GrDBOopuYj631vkxeP-8" style="edgeStyle=orthogonalEdgeStyle;rounded=0;orthogonalLoop=1;jettySize=auto;html=1;entryX=0;entryY=0.5;entryDx=0;entryDy=0;" edge="1" parent="1" source="X5GrDBOopuYj631vkxeP-3" target="X5GrDBOopuYj631vkxeP-4">
          <mxGeometry relative="1" as="geometry" />
        </mxCell>
        <mxCell id="X5GrDBOopuYj631vkxeP-3" value="" style="html=1;verticalLabelPosition=bottom;align=center;labelBackgroundColor=#ffffff;verticalAlign=top;strokeWidth=2;strokeColor=#0080F0;shadow=0;dashed=0;shape=mxgraph.ios7.icons.smartphone;" vertex="1" parent="1">
          <mxGeometry x="24.53" y="450" width="18" height="30" as="geometry" />
        </mxCell>
        <mxCell id="X5GrDBOopuYj631vkxeP-7" value="" style="group" vertex="1" connectable="0" parent="1">
          <mxGeometry x="120" y="180" width="120" height="380" as="geometry" />
        </mxCell>
        <mxCell id="X5GrDBOopuYj631vkxeP-4" value="&lt;p style=&quot;line-height: 120%;&quot;&gt;&lt;br&gt;&lt;/p&gt;" style="rounded=0;whiteSpace=wrap;html=1;align=left;" vertex="1" parent="X5GrDBOopuYj631vkxeP-7">
          <mxGeometry y="30" width="120" height="350" as="geometry" />
        </mxCell>
        <mxCell id="X5GrDBOopuYj631vkxeP-5" value="Frontend" style="text;html=1;align=center;verticalAlign=middle;resizable=0;points=[];autosize=1;strokeColor=none;fillColor=none;" vertex="1" parent="X5GrDBOopuYj631vkxeP-7">
          <mxGeometry x="25" width="70" height="30" as="geometry" />
        </mxCell>
        <mxCell id="X5GrDBOopuYj631vkxeP-6" value="" style="shape=image;verticalLabelPosition=bottom;labelBackgroundColor=default;verticalAlign=top;aspect=fixed;imageAspect=0;image=https://upload.wikimedia.org/wikipedia/commons/thumb/c/cf/Angular_full_color_logo.svg/250px-Angular_full_color_logo.svg.png;" vertex="1" parent="X5GrDBOopuYj631vkxeP-7">
          <mxGeometry x="22.5" y="168.75" width="72.5" height="72.5" as="geometry" />
        </mxCell>
        <mxCell id="X5GrDBOopuYj631vkxeP-14" style="edgeStyle=orthogonalEdgeStyle;rounded=0;orthogonalLoop=1;jettySize=auto;html=1;entryX=0;entryY=0.5;entryDx=0;entryDy=0;" edge="1" parent="1" source="X5GrDBOopuYj631vkxeP-11" target="X5GrDBOopuYj631vkxeP-13">
          <mxGeometry relative="1" as="geometry" />
        </mxCell>
        <mxCell id="X5GrDBOopuYj631vkxeP-11" value="" style="outlineConnect=0;dashed=0;verticalLabelPosition=bottom;verticalAlign=top;align=center;html=1;shape=mxgraph.aws3.api_gateway;fillColor=#D9A741;gradientColor=none;" vertex="1" parent="1">
          <mxGeometry x="330" y="359.25" width="50" height="51.5" as="geometry" />
        </mxCell>
        <mxCell id="X5GrDBOopuYj631vkxeP-12" style="edgeStyle=orthogonalEdgeStyle;rounded=0;orthogonalLoop=1;jettySize=auto;html=1;" edge="1" parent="1" source="X5GrDBOopuYj631vkxeP-4" target="X5GrDBOopuYj631vkxeP-11">
          <mxGeometry relative="1" as="geometry" />
        </mxCell>
        <mxCell id="X5GrDBOopuYj631vkxeP-15" value="channel-dashboard-&lt;br&gt;hotels" style="sketch=0;html=1;dashed=0;whitespace=wrap;fillColor=#2875E2;strokeColor=#ffffff;points=[[0.005,0.63,0],[0.1,0.2,0],[0.9,0.2,0],[0.5,0,0],[0.995,0.63,0],[0.72,0.99,0],[0.5,1,0],[0.28,0.99,0]];verticalLabelPosition=bottom;align=center;verticalAlign=top;shape=mxgraph.kubernetes.icon;prIcon=pod" vertex="1" parent="1">
          <mxGeometry x="510" y="260" width="50" height="48" as="geometry" />
        </mxCell>
        <mxCell id="X5GrDBOopuYj631vkxeP-16" value="channel-register-&lt;br&gt;hotels" style="sketch=0;html=1;dashed=0;whitespace=wrap;fillColor=#2875E2;strokeColor=#ffffff;points=[[0.005,0.63,0],[0.1,0.2,0],[0.9,0.2,0],[0.5,0,0],[0.995,0.63,0],[0.72,0.99,0],[0.5,1,0],[0.28,0.99,0]];verticalLabelPosition=bottom;align=center;verticalAlign=top;shape=mxgraph.kubernetes.icon;prIcon=pod" vertex="1" parent="1">
          <mxGeometry x="510" y="410.75" width="50" height="48" as="geometry" />
        </mxCell>
        <mxCell id="X5GrDBOopuYj631vkxeP-17" value="&lt;span style=&quot;color: rgb(0, 0, 0); font-family: Helvetica; font-size: 12px; font-style: normal; font-variant-ligatures: normal; font-variant-caps: normal; font-weight: 400; letter-spacing: normal; orphans: 2; text-align: center; text-indent: 0px; text-transform: none; widows: 2; word-spacing: 0px; -webkit-text-stroke-width: 0px; background-color: rgb(251, 251, 251); text-decoration-thickness: initial; text-decoration-style: initial; text-decoration-color: initial; float: none; display: inline !important;&quot;&gt;Baclend&lt;/span&gt;" style="text;whiteSpace=wrap;html=1;" vertex="1" parent="1">
          <mxGeometry x="450" y="175" width="80" height="40" as="geometry" />
        </mxCell>
        <mxCell id="X5GrDBOopuYj631vkxeP-18" value="DBSQLHOTELS" style="image;aspect=fixed;html=1;points=[];align=center;fontSize=12;image=img/lib/azure2/databases/Azure_Database_PostgreSQL_Server.svg;" vertex="1" parent="1">
          <mxGeometry x="681" y="70" width="48" height="64" as="geometry" />
        </mxCell>
        <mxCell id="X5GrDBOopuYj631vkxeP-20" value="bs-hotels" style="sketch=0;html=1;dashed=0;whitespace=wrap;fillColor=#2875E2;strokeColor=#ffffff;points=[[0.005,0.63,0],[0.1,0.2,0],[0.9,0.2,0],[0.5,0,0],[0.995,0.63,0],[0.72,0.99,0],[0.5,1,0],[0.28,0.99,0]];verticalLabelPosition=bottom;align=center;verticalAlign=top;shape=mxgraph.kubernetes.icon;prIcon=pod" vertex="1" parent="1">
          <mxGeometry x="770" y="260" width="50" height="48" as="geometry" />
        </mxCell>
        <mxCell id="X5GrDBOopuYj631vkxeP-21" value="bs-rooms" style="sketch=0;html=1;dashed=0;whitespace=wrap;fillColor=#2875E2;strokeColor=#ffffff;points=[[0.005,0.63,0],[0.1,0.2,0],[0.9,0.2,0],[0.5,0,0],[0.995,0.63,0],[0.72,0.99,0],[0.5,1,0],[0.28,0.99,0]];verticalLabelPosition=bottom;align=center;verticalAlign=top;shape=mxgraph.kubernetes.icon;prIcon=pod" vertex="1" parent="1">
          <mxGeometry x="777" y="410.75" width="50" height="48" as="geometry" />
        </mxCell>
      </root>
    </mxGraphModel>
  </diagram>
</mxfile>
